<svg id="Capa_1" enable-background="new 0 0 512.001 512.001" height="512" viewBox="0 0 512.001 512.001" width="512" xmlns="http://www.w3.org/2000/svg"><g><path d="m493.531 27.226-2.394-6.363-6.363-2.394c-2.149-.808-53.464-19.785-125.614-18.396-42.414.82-83.303 8.549-121.534 22.974-47.789 18.031-91.431 46.583-129.713 84.866-38.283 38.282-66.835 81.924-84.866 129.713-14.424 38.231-22.154 79.12-22.974 121.534-1.395 72.144 17.588 123.465 18.396 125.614l2.394 6.363 6.363 2.394c2.073.78 49.898 18.47 118.031 18.47 2.5 0 5.029-.024 7.583-.073 42.414-.82 83.303-8.549 121.534-22.974 47.789-18.031 91.431-46.583 129.713-84.866 38.283-38.282 66.835-81.924 84.866-129.713 14.425-38.23 22.154-79.12 22.974-121.534 1.395-72.144-17.587-123.465-18.396-125.615zm-11.683 127.925c-.364 13.259-1.453 26.346-3.277 39.218l-160.933-160.934c12.87-1.824 25.952-2.923 39.208-3.287zm-1.436-43.862-79.673-79.673c31.854 2.991 55.903 9.402 66.896 12.772 3.38 10.971 9.801 34.95 12.777 66.901zm-450.259 245.561c.364-13.259 1.453-26.346 3.277-39.218l160.933 160.933c-12.87 1.824-25.952 2.923-39.208 3.287zm1.436 43.861 79.673 79.673c-31.864-2.992-55.913-9.405-66.896-12.771-3.38-10.971-9.801-34.95-12.777-66.902zm351.285-17.837c-35.064 35.063-74.901 61.223-118.405 77.751-11.305 4.295-22.877 7.939-34.672 10.948l-189.376-189.376c2.948-11.555 6.512-22.894 10.695-33.981 16.516-43.774 42.763-83.842 78.011-119.09 35.064-35.063 74.901-61.223 118.405-77.751 11.305-4.295 22.877-7.939 34.672-10.948l189.376 189.376c-2.948 11.555-6.512 22.894-10.695 33.981-16.516 43.774-42.762 83.842-78.011 119.09z"/><path d="m334.428 156.36-28.89 28.89-21.239-21.239-21.213 21.213 21.239 21.239-28.325 28.324-21.238-21.238-21.213 21.212 21.239 21.239-28.325 28.324-21.238-21.238-21.213 21.212 21.238 21.239-28.89 28.891 21.213 21.213 28.89-28.891 21.239 21.239 21.213-21.213-21.239-21.239 28.324-28.324 21.239 21.239 21.213-21.213-21.239-21.239 28.325-28.324 21.238 21.239 21.213-21.213-21.239-21.239 28.891-28.891z"/></g></svg>